<svg xmlns="http://www.w3.org/2000/svg" version="1.1" xmlns:xlink="http://www.w3.org/1999/xlink" width="512" height="512" x="0" y="0" viewBox="0 0 512 512.001" style="enable-background:new 0 0 512 512" xml:space="preserve" class=""><g><path d="M73.73 52.555c-14.742 0-26.738 11.996-26.738 26.738 0 14.742 11.996 26.738 26.738 26.738 14.743 0 26.739-11.996 26.739-26.738 0-14.742-11.996-26.738-26.739-26.738zm0 38.297c-6.37 0-11.558-5.184-11.558-11.559s5.187-11.559 11.558-11.559c6.372 0 11.56 5.184 11.56 11.559s-5.188 11.559-11.56 11.559zM129.582 86.883h91.094a7.59 7.59 0 0 0 0-15.18h-91.094a7.59 7.59 0 0 0 0 15.18zM268.047 86.883a7.591 7.591 0 0 0 7.594-7.59 7.589 7.589 0 0 0-7.594-7.59h-17.008a7.59 7.59 0 0 0 0 15.18zM73.73 131.496c-14.742 0-26.738 11.996-26.738 26.738 0 14.746 11.996 26.743 26.738 26.743 14.743 0 26.739-11.997 26.739-26.743 0-14.742-11.996-26.738-26.739-26.738zm0 38.297c-6.37 0-11.558-5.184-11.558-11.559 0-6.37 5.187-11.554 11.558-11.554 6.372 0 11.56 5.183 11.56 11.554 0 6.375-5.188 11.559-11.56 11.559zM129.582 165.828h138.465a7.592 7.592 0 1 0 0-15.183H129.582a7.59 7.59 0 0 0-7.59 7.59 7.591 7.591 0 0 0 7.59 7.593zM73.73 210.438c-14.742 0-26.738 11.996-26.738 26.742 0 14.742 11.996 26.738 26.738 26.738 14.743 0 26.739-11.996 26.739-26.738 0-14.746-11.996-26.743-26.739-26.743zm0 38.296c-6.37 0-11.558-5.183-11.558-11.554 0-6.375 5.187-11.559 11.558-11.559 6.372 0 11.56 5.184 11.56 11.559 0 6.37-5.188 11.554-11.56 11.554zM268.047 229.586h-91.09a7.592 7.592 0 1 0 0 15.184h91.09a7.592 7.592 0 1 0 0-15.184zM129.582 244.77h17.008a7.592 7.592 0 1 0 0-15.184h-17.008a7.591 7.591 0 0 0-7.59 7.594 7.59 7.59 0 0 0 7.59 7.59zM73.73 289.383c-14.742 0-26.738 11.996-26.738 26.738 0 14.742 11.996 26.738 26.738 26.738 14.743 0 26.739-11.996 26.739-26.738 0-14.742-11.996-26.738-26.739-26.738zm0 38.297c-6.37 0-11.558-5.184-11.558-11.559s5.187-11.559 11.558-11.559c6.372 0 11.56 5.184 11.56 11.56s-5.188 11.558-11.56 11.558zm0 0" fill="#FD465B" opacity="1" data-original="#000000" class=""></path><path d="M322.387 280.91V28.848C322.387 12.945 309.453 0 293.539 0H28.848C12.945 0 0 12.945 0 28.848v337.718c0 15.899 12.945 28.844 28.848 28.844h59.53a7.594 7.594 0 0 0 7.595-7.59 7.594 7.594 0 0 0-7.594-7.59H28.848c-7.532 0-13.664-6.132-13.664-13.664V28.848c0-7.532 6.132-13.664 13.664-13.664h264.691c7.543 0 13.664 6.132 13.664 13.664v258.175a119.058 119.058 0 0 0-33.36 24.2 7.582 7.582 0 0 0-5.796-2.692H129.582a7.59 7.59 0 0 0-7.59 7.59 7.591 7.591 0 0 0 7.59 7.594h133.719c-11.887 16.207-19.762 35.535-22.117 56.515H118.746a7.589 7.589 0 0 0-7.594 7.59 7.59 7.59 0 0 0 7.594 7.594h121.7C241.425 459.867 294.155 512 358.843 512c65.293 0 118.422-53.125 118.422-118.418 0-80.172-78.57-137.484-154.88-112.672zm36.457 215.906c-62 0-110.406-54.636-102.38-116.586 4.212-32.48 23.575-60.273 50.74-76.023 68.562-39.812 154.878 10.102 154.878 89.371 0 56.926-46.316 103.238-103.238 103.238zm0 0" fill="#FD465B" opacity="1" data-original="#000000" class=""></path><path d="M417.652 370.805h-36.039v-36.438c0-12.558-10.215-22.773-22.77-22.773-12.558 0-22.773 10.215-22.773 22.773v36.438h-36.039c-12.617 0-23.172 9.945-23.172 22.773 0 12.555 10.215 22.774 22.774 22.774h36.437v36.433c0 12.559 10.215 22.774 22.774 22.774 12.554 0 22.77-10.215 22.77-22.774v-36.433h36.437c12.558 0 22.773-10.22 22.773-22.774 0-12.77-10.5-22.773-23.172-22.773zm.399 30.363h-37.352c-7.867 0-14.265 6.398-14.265 14.266v37.351c0 4.188-3.407 7.594-7.59 7.594-4.188 0-7.594-3.406-7.594-7.594v-37.351c0-7.864-6.398-14.266-14.266-14.266h-37.351c-4.188 0-7.594-3.406-7.594-7.59 0-4.418 3.852-7.594 7.992-7.594h36.953c7.868 0 14.266-6.398 14.266-14.265v-37.352c0-4.187 3.406-7.59 7.594-7.59 4.183 0 7.59 3.403 7.59 7.59v37.352c0 7.867 6.398 14.265 14.265 14.265h36.953c4 0 7.485 2.922 7.934 6.649.559 4.644-3.074 8.535-7.535 8.535zm0 0" fill="#FD465B" opacity="1" data-original="#000000" class=""></path></g></svg>