<svg xmlns="http://www.w3.org/2000/svg" version="1.1" xmlns:xlink="http://www.w3.org/1999/xlink" width="512" height="512" x="0" y="0" viewBox="0 0 512 512" style="enable-background:new 0 0 512 512" xml:space="preserve" class=""><g><path d="M496 191.198h-15.884v-18.305a8 8 0 0 0-8-8h-72.912a8 8 0 0 0-8 8v18.305h-15.882a8 8 0 0 0-8 8v95.846h-7.884V276.74a8 8 0 0 0-8-8h-72.911a8 8 0 0 0-8 8v18.305h-15.883a8 8 0 0 0-8 8V496a8 8 0 0 0 8 8H496a8 8 0 0 0 8-8V199.198a8 8 0 0 0-8-8zm-88.796-10.304h56.912v10.305h-56.912zM286.528 284.74h56.911v10.305h-56.911zm-23.884 26.305h104.678V488H262.644zm196 176.955h-45.966v-75.131c0-3.255 3.452-6.004 7.538-6.004h30.89c4.086 0 7.538 2.749 7.538 6.004zM488 488h-13.356v-75.131c0-12.133-10.56-22.004-23.538-22.004h-30.89c-12.979 0-23.538 9.871-23.538 22.004V488h-13.356V303.064l.001-.019v-95.846H488zM351.439 336.837h-72.911a8 8 0 0 0-8 8v109.371a8 8 0 0 0 8 8h72.911a8 8 0 0 0 8-8V344.837a8 8 0 0 0-8-8zm-8 36.457h-20.455v-20.457h20.455zm-20.455 16h20.455v20.455h-20.455zm-16 20.455h-20.456v-20.455h20.456zm0-56.912v20.457h-20.456v-20.457zm-20.456 72.912h20.456v20.459h-20.456zm36.456 20.459v-20.459h20.455v20.459zm76.221-90.608h72.911a8 8 0 0 0 8-8V238.229a8 8 0 0 0-8-8h-72.911a8 8 0 0 0-8 8V347.6a8 8 0 0 0 8 8zm8-36.459h20.455V339.6h-20.455zm20.455-16h-20.455v-20.456h20.455zm16-20.456h20.456v20.456H443.66zm0 56.915v-20.459h20.456V339.6zm20.456-72.915H443.66v-20.456h20.456zm-36.456-20.456v20.456h-20.455v-20.456zM197.631 450.38h-27.015V138.852h148.85v34.874h-14.281a8 8 0 0 0-8 8v44.564a8 8 0 0 0 8 8h44.563a8 8 0 0 0 8-8v-44.564a8 8 0 0 0-8-8h-14.282v-34.874h33.406a8 8 0 0 0 5.133-14.137l-39.874-33.349a8 8 0 0 0-5.133-1.863h-12.402l-145.98-70.237V16a8 8 0 0 0-8-8h-27.294a8 8 0 0 0-7.723 5.912l-2.123 7.853-69.511 56.03H16a8 8 0 0 0-8 8v56.764a8 8 0 0 0 8 8h56.764a8 8 0 0 0 8-8v-3.708h19.265V450.38H73.013a8 8 0 0 0-8 8V496a8 8 0 0 0 8 8h124.618a8 8 0 0 0 8-8v-37.62a8 8 0 0 0-8-8zm144.117-232.091h-28.563v-28.564h28.563zM127.343 450.38l27.274-27.274v27.274zm48.947-344.877-14.035 14.035-14.035-14.035zm105.325 0h28.069l-14.035 14.035zm-5.279 17.349h-28.07l14.035-14.035zm-47.384-3.314-14.035-14.035h28.071zm-19.314 3.314h-28.07l14.035-14.035zm-66.697 0H114.87l14.035-14.035zm-33.349-17.349L96.72 118.376l-8.798-12.873zm45.024 278.975-35.274-35.274 35.274-35.274zm0-109.176-35.274-35.274 35.274-35.274zm-38.587-54.588v-70.549l35.274 35.274zm0 38.627 35.274 35.275-35.274 35.275zm35.274 144.451-35.274 35.275v-70.549zm3.313-237.666-27.274-27.274h27.274zm160.348-43.274 14.517-14.517 17.357 14.517zm-35.271-33.349H170.616V37.022zM154.616 24v65.503h-30.877L141.447 24zm-47.451 65.503H80.763v-3.708a7.972 7.972 0 0 0-2.287-5.595l39.897-32.159zM64.763 134.56H24V93.796h40.764v40.764zM189.631 488H81.013v-21.62h108.618z" fill="#7367F0" opacity="1" data-original="#000000"></path></g></svg>