<svg xmlns="http://www.w3.org/2000/svg" version="1.1" xmlns:xlink="http://www.w3.org/1999/xlink" width="512" height="512" x="0" y="0" viewBox="0 0 512 512" style="enable-background:new 0 0 512 512" xml:space="preserve"><g><path d="m498.874 216.054-35.877-13.81a212.367 212.367 0 0 0-22.627-54.582l15.615-35.155a8 8 0 0 0-1.655-8.904l-45.936-45.934a8.002 8.002 0 0 0-8.903-1.654l-35.168 15.619a212.411 212.411 0 0 0-54.564-22.621l-13.813-35.888A8.002 8.002 0 0 0 288.479 8H223.52a8 8 0 0 0-7.466 5.126L202.24 49.013a212.418 212.418 0 0 0-54.565 22.621l-35.167-15.619a7.995 7.995 0 0 0-8.904 1.654l-45.935 45.936a8 8 0 0 0-1.654 8.904l15.617 35.164a212.394 212.394 0 0 0-22.623 54.569l-35.883 13.812A8.002 8.002 0 0 0 8 223.521v64.96a8 8 0 0 0 5.126 7.466l35.877 13.81a212.394 212.394 0 0 0 22.626 54.581l-15.614 35.155a8 8 0 0 0 1.654 8.904l45.935 45.934a8.002 8.002 0 0 0 8.904 1.654l35.169-15.619a212.458 212.458 0 0 0 54.564 22.621l13.813 35.888a8 8 0 0 0 7.466 5.126h64.96a8 8 0 0 0 7.466-5.126l13.81-35.878a213.94 213.94 0 0 0 11.07-3.205C337.606 486.335 367.212 504 400.869 504c52.18 0 94.632-42.452 94.632-94.632 0-18.886-5.564-36.495-15.135-51.281l7.539-7.539a12.343 12.343 0 0 0 3.638-8.789c0-3.321-1.291-6.442-3.636-8.788l-10.64-10.64c-4.847-4.846-12.732-4.846-17.577 0l-.58.58a212.513 212.513 0 0 0 3.877-13.152l35.888-13.813a8 8 0 0 0 5.126-7.466v-64.96a8.002 8.002 0 0 0-5.127-7.466zM256 405.547c-82.461 0-149.548-67.087-149.548-149.547 0-82.461 67.087-149.548 149.548-149.548 82.46 0 149.547 67.087 149.547 149.548 0 6.064-.37 12.139-1.094 18.137h-20.964c-7.424 0-13.464 6.04-13.464 13.464v9.78c0 7.424 6.04 13.464 13.464 13.464h9.38v4.233a93.907 93.907 0 0 0-29.554 7.437V265.43c6.453-6.326 9.72-13.672 9.72-21.886v-38.905c0-8.92-7.257-16.177-16.178-16.177h-47.031v-7.39c0-14.685-11.947-26.632-26.632-26.632h-54.39c-14.685 0-26.632 11.947-26.632 26.632v7.39h-47.03c-8.92 0-16.177 7.257-16.177 16.177v38.905c0 8.214 3.267 15.559 9.718 21.884V333.6c0 13.211 10.748 23.959 23.96 23.959h148.201l.528.528a94.022 94.022 0 0 0-14.268 38.494c-16.341 5.946-33.507 8.966-51.104 8.966zm130.025-110.702v-4.708h29.688v4.708zm-213.381 46.714c-4.39 0-7.96-3.57-7.96-7.959v-57.708c14.568 6.516 35.589 10.593 63.592 12.357 2.181 13.337 13.78 23.549 27.724 23.549 13.949 0 25.551-10.22 27.726-23.563 28.015-1.777 49.035-5.851 63.59-12.349v51.712l-5.267-5.267c-4.846-4.846-12.731-4.847-17.577 0l-10.64 10.64a12.34 12.34 0 0 0-3.626 8.588zm34.418-137.097h97.875v18.591c0 1.221-1.031 2.252-2.252 2.252h-93.371c-1.221 0-2.252-1.031-2.252-2.252zm86.764-16h-75.653v-7.39c0-5.862 4.77-10.632 10.632-10.632h54.39c5.862 0 10.632 4.77 10.632 10.632v7.39zm-84.512 52.843h93.371c10.064 0 18.252-8.188 18.252-18.252v-18.591h35.92c.085 0 .178.093.178.177v38.905c0 2.816-.704 7.139-6.796 12.139-10.904 8.951-33.957 14.543-68.556 16.647-4.375-9.841-14.237-16.725-25.683-16.725-11.452 0-21.318 6.89-25.69 16.739-34.562-2.086-57.612-7.683-68.55-16.662-6.09-4.998-6.794-9.32-6.794-12.137V204.64c0-.086.091-.177.177-.177h35.92v18.591c-.001 10.064 8.187 18.251 18.251 18.251zm58.783 42.397c0 6.67-5.427 12.097-12.097 12.097-6.671 0-12.098-5.427-12.098-12.097s5.427-12.097 12.098-12.097c6.67 0 12.097 5.427 12.097 12.097zm63.156 61.639-3.582-3.582 5.588-5.588 3.582 3.582a95.625 95.625 0 0 0-5.588 5.588zM400.869 488c-43.357 0-78.632-35.274-78.632-78.632s35.274-78.632 78.632-78.632 78.632 35.274 78.632 78.632S444.227 488 400.869 488zm67.61-151.829 5.588 5.588-3.582 3.582a95.625 95.625 0 0 0-5.588-5.588zM488 282.987l-34.646 13.336a7.997 7.997 0 0 0-4.908 5.613 197.204 197.204 0 0 1-6.667 22.109 93.913 93.913 0 0 0-32.91-8.967v-4.233h9.38c7.424 0 13.464-6.04 13.464-13.464v-9.78c0-6.644-4.843-12.166-11.181-13.255a167.871 167.871 0 0 0 1.015-18.345c0-91.283-74.264-165.548-165.547-165.548S90.452 164.717 90.452 256 164.717 421.547 256 421.547c17.249 0 34.132-2.617 50.342-7.793a93.973 93.973 0 0 0 7.011 31.602 196.386 196.386 0 0 1-11.42 3.099 8 8 0 0 0-5.614 4.909L282.987 488h-53.974l-13.336-34.646a7.999 7.999 0 0 0-5.613-4.908 196.562 196.562 0 0 1-57.635-23.895 7.997 7.997 0 0 0-7.441-.499l-33.955 15.08-38.166-38.165 15.075-33.942a8.001 8.001 0 0 0-.5-7.442 196.53 196.53 0 0 1-23.898-57.649 7.997 7.997 0 0 0-4.908-5.613L24 282.988v-53.974l34.642-13.335a7.996 7.996 0 0 0 4.908-5.614 196.53 196.53 0 0 1 23.896-57.638 8.001 8.001 0 0 0 .5-7.442l-15.078-33.95 38.166-38.167 33.953 15.08a7.998 7.998 0 0 0 7.441-.499 196.544 196.544 0 0 1 57.636-23.895 7.997 7.997 0 0 0 5.613-4.908L229.014 24h53.973l13.336 34.646a7.999 7.999 0 0 0 5.613 4.908 196.515 196.515 0 0 1 57.635 23.895 8 8 0 0 0 7.441.499l33.954-15.08 38.167 38.165-15.076 33.942a8.001 8.001 0 0 0 .5 7.442 196.388 196.388 0 0 1 23.897 57.649 8 8 0 0 0 4.909 5.614L488 229.013zm-87.131 55.546c-39.059 0-70.836 31.777-70.836 70.836s31.777 70.836 70.836 70.836 70.836-31.777 70.836-70.836-31.777-70.836-70.836-70.836zm0 125.672c-30.236 0-54.836-24.6-54.836-54.836s24.6-54.836 54.836-54.836 54.836 24.6 54.836 54.836-24.6 54.836-54.836 54.836zm8-75.545v-18.126a8 8 0 0 0-16 0v18.126c-8.302 3.218-14.206 11.285-14.206 20.709 0 12.244 9.962 22.206 22.206 22.206s22.206-9.962 22.206-22.206c0-9.425-5.904-17.491-14.206-20.709zm-8 26.915c-3.422 0-6.206-2.784-6.206-6.206s2.784-6.206 6.206-6.206 6.206 2.784 6.206 6.206-2.784 6.206-6.206 6.206z" fill="#7367F0" opacity="1" data-original="#000000"></path></g></svg>