<svg xmlns="http://www.w3.org/2000/svg" version="1.1" xmlns:xlink="http://www.w3.org/1999/xlink" width="512" height="512" x="0" y="0" viewBox="0 0 512 512" style="enable-background:new 0 0 512 512" xml:space="preserve" class=""><g><circle cx="485" cy="115" r="15" fill="#7367F0" opacity="1" data-original="#000000" class=""></circle><circle cx="65" cy="315" r="15" fill="#7367F0" opacity="1" data-original="#000000" class=""></circle><circle cx="50" cy="130" r="10" fill="#7367F0" opacity="1" data-original="#000000" class=""></circle><circle cx="120" cy="240" r="10" fill="#7367F0" opacity="1" data-original="#000000" class=""></circle><circle cx="400" cy="240" r="10" fill="#7367F0" opacity="1" data-original="#000000" class=""></circle><circle cx="460" cy="400" r="10" fill="#7367F0" opacity="1" data-original="#000000" class=""></circle><path d="M405 80H115c-19.299 0-35-15.701-35-35s15.701-35 35-35h290c19.299 0 35 15.701 35 35s-15.701 35-35 35zM115 30c-8.271 0-15 6.729-15 15s6.729 15 15 15h290c8.271 0 15-6.729 15-15s-6.729-15-15-15z" fill="#7367F0" opacity="1" data-original="#000000" class=""></path><path d="M260.02 259.98h-.031c-2.663-.009-5.232-1.059-7.103-2.953-11.144-11.144-24.734-19.659-40.389-25.305C157.171 211.769 120 158.833 120 100V70c0-5.523 4.477-10 10-10h260c5.522 0 10 4.477 10 10v30c0 58.833-37.171 111.769-92.496 131.722-15.654 5.646-29.245 14.161-40.395 25.31a10.063 10.063 0 0 1-7.089 2.948zM140 80v20c0 50.431 31.861 95.806 79.281 112.909 15.291 5.515 28.949 13.392 40.719 23.472 11.771-10.08 25.429-17.958 40.719-23.472C348.14 195.806 380 150.431 380 100V80zM405 500H115c-19.299 0-35-15.701-35-35s15.701-35 35-35h290c19.299 0 35 15.701 35 35s-15.701 35-35 35zm-290-50c-8.271 0-15 6.729-15 15s6.729 15 15 15h290c8.271 0 15-6.729 15-15s-6.729-15-15-15z" fill="#7367F0" opacity="1" data-original="#000000" class=""></path><path d="M390 450H130c-5.523 0-10-4.478-10-10v-40c0-58.834 37.171-111.769 92.496-131.723 15.655-5.646 29.245-14.161 40.394-25.309a10.068 10.068 0 0 1 7.091-2.948h.031c2.663.008 5.231 1.058 7.104 2.953 11.144 11.144 24.734 19.66 40.389 25.304C362.829 288.231 400 341.166 400 400v40c0 5.522-4.478 10-10 10zm-250-20h240v-30c0-50.432-31.86-95.806-79.281-112.908-15.29-5.515-28.948-13.392-40.719-23.472-11.77 10.08-25.428 17.957-40.719 23.472C171.861 304.194 140 349.568 140 400z" fill="#7367F0" opacity="1" data-original="#000000" class=""></path><path d="M240 450c-5.523 0-10-4.478-10-10V340c0-5.522 4.477-10 10-10s10 4.478 10 10v100c0 5.522-4.477 10-10 10zM280 450c-5.522 0-10-4.478-10-10v-60c0-5.522 4.478-10 10-10s10 4.478 10 10v60c0 5.522-4.478 10-10 10z" fill="#7367F0" opacity="1" data-original="#000000" class=""></path></g></svg>