<svg xmlns="http://www.w3.org/2000/svg" version="1.1" xmlns:xlink="http://www.w3.org/1999/xlink" width="512" height="512" x="0" y="0" viewBox="0 0 682.667 682.667" style="enable-background:new 0 0 512 512" xml:space="preserve" class=""><g><defs><clipPath id="a" clipPathUnits="userSpaceOnUse"><path d="M0 512h512V0H0Z" fill="#7367f0" opacity="1" data-original="#000000"></path></clipPath></defs><g clip-path="url(#a)" transform="matrix(1.33333 0 0 -1.33333 0 682.667)"><path d="M0 0h-207.1v49.041c0 19.02 15.535 34.582 34.555 34.582h15.761m347.555 0h15.734c19.02 0 34.583-15.562 34.583-34.582V0H33.987m52.47 83.623h69.647m-173.934 0h69.647m-173.963 0h69.648" style="stroke-linecap: round; stroke-linejoin: round; stroke-miterlimit: 10; stroke-dasharray: none; stroke-opacity: 1;" transform="translate(214.6 375.948)" fill="none" stroke="#7367F0" stroke-width="14.995px" stroke-linecap="round" stroke-linejoin="round" stroke-miterlimit="10" stroke-dasharray="none" stroke-opacity="" data-original="#000000" opacity="1" class=""></path><path d="M0 0v-117.864M0 63.071V33.959m-448.187-199.842V63.071m309.968-308.977h-278.475c-17.32 0-31.493 14.173-31.493 31.494v14.57" style="stroke-linecap: round; stroke-linejoin: round; stroke-miterlimit: 10; stroke-dasharray: none; stroke-opacity: 1;" transform="translate(455.688 312.877)" fill="none" stroke="#7367F0" stroke-width="14.995px" stroke-linecap="round" stroke-linejoin="round" stroke-miterlimit="10" stroke-dasharray="none" stroke-opacity="" data-original="#000000" opacity="1" class=""></path><path d="M0 0v0c9.524 0 17.32-7.795 17.32-17.32v-47.112c0-9.524-7.796-17.32-17.32-17.32-9.524 0-17.319 7.796-17.319 17.32v47.112C-17.319-7.795-9.524 0 0 0Zm-104.286 0v0c9.524 0 17.319-7.795 17.319-17.32v-47.112c0-9.524-7.795-17.32-17.319-17.32-9.553 0-17.349 7.796-17.349 17.32v47.112c0 9.525 7.796 17.32 17.349 17.32zm-104.316 0v0c9.525 0 17.32-7.795 17.32-17.32v-47.112c0-9.524-7.795-17.32-17.32-17.32-9.524 0-17.319 7.796-17.319 17.32v47.112c0 9.525 7.795 17.32 17.319 17.32zm312.917-.199v0c9.525 0 17.32-7.795 17.32-17.32v-47.112c0-9.523-7.795-17.348-17.32-17.348-9.552 0-17.348 7.825-17.348 17.348v47.112c0 9.525 7.796 17.32 17.348 17.32z" style="stroke-linecap: round; stroke-linejoin: round; stroke-miterlimit: 10; stroke-dasharray: none; stroke-opacity: 1;" transform="translate(283.736 500.646)" fill="none" stroke="#7367F0" stroke-width="14.995px" stroke-linecap="round" stroke-linejoin="round" stroke-miterlimit="10" stroke-dasharray="none" stroke-opacity="" data-original="#000000" opacity="1" class=""></path><path d="M54.3 240.594h88.583v88.555H54.3ZM54.3 113.801h88.583v88.554H54.3ZM187.302 240.594h88.555v88.555h-88.555zM187.302 113.801h88.555v88.554h-88.555zM320.304 240.594h88.554v88.555h-88.554z" style="stroke-linecap: round; stroke-linejoin: round; stroke-miterlimit: 10; stroke-dasharray: none; stroke-opacity: 1;" fill="none" stroke="#7367F0" stroke-width="14.995px" stroke-linecap="round" stroke-linejoin="round" stroke-miterlimit="10" stroke-dasharray="none" stroke-opacity="" data-original="#000000" opacity="1" class=""></path><path d="M0 0c16.157 11.764 36.085 18.68 57.6 18.68 54.227 0 98.165-43.938 98.165-98.135 0-54.2-43.938-98.138-98.165-98.138-54.199 0-98.136 43.938-98.136 98.138 0 20.437 6.265 39.43 16.951 55.162" style="stroke-linecap: round; stroke-linejoin: round; stroke-miterlimit: 10; stroke-dasharray: none; stroke-opacity: 1;" transform="translate(348.735 188.947)" fill="none" stroke="#7367F0" stroke-width="14.995px" stroke-linecap="round" stroke-linejoin="round" stroke-miterlimit="10" stroke-dasharray="none" stroke-opacity="" data-original="#000000" opacity="1" class=""></path><path d="M0 0v-66.047l-46.148-54.313" style="stroke-linecap: round; stroke-linejoin: round; stroke-miterlimit: 10; stroke-dasharray: none; stroke-opacity: 1;" transform="translate(406.335 175.54)" fill="none" stroke="#7367F0" stroke-width="14.995px" stroke-linecap="round" stroke-linejoin="round" stroke-miterlimit="10" stroke-dasharray="none" stroke-opacity="" data-original="#000000" opacity="1" class=""></path></g></g></svg>