<svg xmlns="http://www.w3.org/2000/svg" version="1.1" xmlns:xlink="http://www.w3.org/1999/xlink" width="512" height="512" x="0" y="0" viewBox="0 0 64 64" style="enable-background:new 0 0 512 512" xml:space="preserve" class=""><g><path d="m15.23 17.54-3.66 3.66-1.09-1.09c-.38-.38-.99-.38-1.37 0s-.38.99 0 1.37l1.78 1.78a.993.993 0 0 0 1.38 0l4.34-4.35c.38-.38.38-.99 0-1.37-.39-.38-1.01-.38-1.38 0zM20.2 21.36h20.61c.54 0 .97-.43.97-.97s-.43-.97-.97-.97H20.2a.97.97 0 0 0 0 1.94zM15.23 28.48l-3.66 3.66-1.09-1.09c-.38-.38-.99-.38-1.37 0s-.38.99 0 1.37l1.78 1.78a.993.993 0 0 0 1.38 0l4.34-4.35c.38-.38.38-.99 0-1.37-.39-.38-1.01-.38-1.38 0zM20.2 32.3h14.79c.54 0 .97-.43.97-.97s-.43-.97-.97-.97H20.2a.97.97 0 0 0 0 1.94zM15.23 39.42l-3.66 3.66-1.09-1.09c-.38-.38-.99-.38-1.37 0s-.38.99 0 1.37l1.78 1.78a.993.993 0 0 0 1.38 0l4.34-4.35c.38-.38.38-.99 0-1.37-.39-.38-1.01-.38-1.38 0zM20.2 43.24h8.97c.54 0 .97-.43.97-.97s-.43-.97-.97-.97H20.2a.97.97 0 0 0 0 1.94zM15.23 50.36l-3.66 3.66-1.09-1.09c-.38-.38-.99-.38-1.37 0s-.38.99 0 1.37l1.78 1.78a.993.993 0 0 0 1.38 0l4.34-4.35c.38-.38.38-.99 0-1.37-.39-.38-1.01-.38-1.38 0zM32.08 52.24H20.2c-.54 0-.97.43-.97.97s.43.97.97.97h11.88c.54 0 .97-.43.97-.97s-.43-.97-.97-.97z" fill="#7367F0" opacity="1" data-original="#000000"></path><path d="m60.88 46.49-1.33-.57c.24-1.35.26-2.74.06-4.09l1.34-.53c.5-.2.74-.76.54-1.26l-1.4-3.51c-.1-.24-.28-.43-.52-.53s-.5-.1-.74-.01l-1.34.53a12.43 12.43 0 0 0-2.86-2.93l.57-1.33a.965.965 0 0 0-.51-1.27l-3.47-1.49a.97.97 0 0 0-1.27.51l-.57 1.33c-.41-.07-.82-.12-1.23-.15V10.01c0-1.6-1.31-2.91-2.91-2.91H39c-.58-1.75-2.21-3.02-4.15-3.02h-4.59C29.81 1.76 27.75 0 25.3 0s-4.51 1.76-4.96 4.08h-4.59c-1.94 0-3.57 1.27-4.15 3.02H5.35a2.92 2.92 0 0 0-2.91 2.91v51.08c0 1.6 1.3 2.91 2.91 2.91h39.89c1.6 0 2.91-1.3 2.91-2.91v-4.85c.3-.02.61-.05.91-.1l.53 1.34a.971.971 0 0 0 1.26.54l3.51-1.4c.5-.2.74-.76.54-1.26l-.53-1.34c1.12-.78 2.12-1.75 2.93-2.85l1.33.57a.97.97 0 0 0 1.27-.51l1.49-3.47a.965.965 0 0 0-.51-1.27zM15.75 6.02h5.46c.54 0 .97-.43.97-.97 0-1.72 1.4-3.11 3.11-3.11 1.72 0 3.11 1.4 3.11 3.11 0 .54.43.97.97.97h5.46c1.35 0 2.45 1.1 2.45 2.45v.8h-24v-.8c.02-1.35 1.12-2.45 2.47-2.45zm29.49 56.04H5.35c-.53 0-.97-.44-.97-.97V10.01c0-.53.44-.97.97-.97h6.01v1.2c0 .54.43.97.97.97h25.94c.54 0 .97-.43.97-.97v-1.2h6c.53 0 .97.44.97.97v21.16c-.31.02-.61.05-.91.1l-.53-1.34c-.2-.5-.76-.74-1.26-.54L40 30.79c-.24.1-.43.28-.53.52s-.1.5-.01.74l.53 1.34a12.43 12.43 0 0 0-2.93 2.86l-1.33-.57c-.24-.1-.5-.1-.74-.01-.24.1-.43.28-.53.52l-1.49 3.47a.97.97 0 0 0 .51 1.27l1.33.57c-.24 1.35-.26 2.74-.05 4.09l-1.34.53c-.24.1-.43.28-.53.52s-.1.5-.01.74l1.4 3.51c.2.5.76.74 1.26.54l1.34-.53c.78 1.12 1.75 2.11 2.86 2.93l-.57 1.33a.97.97 0 0 0 .51 1.27l3.47 1.49a.965.965 0 0 0 1.27-.51l.57-1.33c.41.07.82.12 1.24.15v4.85c-.02.55-.46.98-.99.98zm12.33-20.63c.35 1.58.33 3.25-.07 4.82-.12.46.12.94.56 1.13l1.17.5-.73 1.69-1.17-.5a.968.968 0 0 0-1.2.37c-.87 1.37-2.07 2.53-3.46 3.37-.41.25-.58.75-.4 1.19l.47 1.18-1.71.68-.47-1.18a.976.976 0 0 0-1.11-.59c-1.59.35-3.25.33-4.83-.07a.97.97 0 0 0-1.13.56L43 55.76l-1.69-.73.5-1.17c.19-.44.03-.94-.37-1.2-1.38-.88-2.54-2.08-3.37-3.46a.96.96 0 0 0-1.19-.4l-1.18.47-.68-1.71 1.18-.47a.98.98 0 0 0 .59-1.11c-.35-1.6-.33-3.23.06-4.83a.963.963 0 0 0-.56-1.12l-1.17-.5.72-1.69 1.17.5c.44.19.95.03 1.2-.37.87-1.37 2.06-2.53 3.45-3.37.41-.25.58-.75.4-1.19l-.47-1.17 1.71-.68.47 1.17c.18.44.65.69 1.11.59 1.58-.35 3.25-.33 4.83.07a.97.97 0 0 0 1.13-.56l.5-1.17 1.69.73-.5 1.17c-.19.44-.03.95.37 1.2 1.37.87 2.54 2.06 3.37 3.45.24.41.75.58 1.19.4l1.18-.47.68 1.71-1.18.47c-.43.18-.68.65-.57 1.11z" fill="#7367F0" opacity="1" data-original="#000000"></path><path d="M50.53 35.92c-2.08-.9-4.39-.93-6.49-.09-4.35 1.73-6.47 6.68-4.74 11.02 1.32 3.32 4.52 5.34 7.89 5.34 1.04 0 2.11-.19 3.13-.6 4.35-1.73 6.47-6.68 4.74-11.02a8.402 8.402 0 0 0-4.53-4.65zm-.93 13.87c-3.35 1.34-7.17-.3-8.5-3.65-1.34-3.35.3-7.17 3.65-8.5a6.43 6.43 0 0 1 2.42-.47c2.6 0 5.07 1.56 6.09 4.12 1.33 3.35-.3 7.16-3.66 8.5z" fill="#7367F0" opacity="1" data-original="#000000"></path></g></svg>