<svg xmlns="http://www.w3.org/2000/svg" version="1.1" xmlns:xlink="http://www.w3.org/1999/xlink" width="512" height="512" x="0" y="0" viewBox="0 0 1540 1540" style="enable-background:new 0 0 512 512" xml:space="preserve" class=""><g><path d="M1514 1327.9H26c-11.6 0-21-9.4-21-21V343.4c0-11.6 9.4-21 21-21h927.1c11.6 0 21 9.4 21 21s-9.4 21-21 21H47V1286h1446V364.4h-157c-11.6 0-21-9.4-21-21s9.4-21 21-21h178c11.6 0 21 9.4 21 21V1307c0 11.5-9.4 20.9-21 20.9z" fill="#7367F0" opacity="1" data-original="#000000"></path><path d="M368.6 1327.9c-11.6 0-21-9.4-21-21V343.4c0-11.6 9.4-21 21-21s21 9.4 21 21V1307c0 11.5-9.4 20.9-21 20.9zM1514 687.1h-225.9c-11.6 0-21-9.4-21-21s9.4-21 21-21H1514c11.6 0 21 9.4 21 21s-9.4 21-21 21zM993.3 687.1H726.1c-11.6 0-21-9.4-21-21s9.4-21 21-21h267.1c11.6 0 21 9.4 21 21s-9.3 21-20.9 21z" fill="#7367F0" opacity="1" data-original="#000000"></path><path d="M726.1 1327.9c-11.6 0-21-9.4-21-21v-594L382.5 999.4c-3.8 3.4-8.8 5.3-13.9 5.3H26c-11.6 0-21-9.4-21-21s9.4-21 21-21h334.7l351.5-312.3c6.2-5.5 15-6.8 22.6-3.5 7.5 3.4 12.4 10.9 12.4 19.2v640.8c-.1 11.6-9.5 21-21.1 21z" fill="#7367F0" opacity="1" data-original="#000000"></path><path d="M1514 1114h-369.5c-2.6 0-5.1-.5-7.5-1.4L718.6 953.3c-10.8-4.1-16.3-16.3-12.2-27.1s16.3-16.3 27.1-12.2l414.8 157.9H1514c11.6 0 21 9.4 21 21s-9.4 21.1-21 21.1zM1144.5 844.2c-4.7 0-9.3-1.5-13.2-4.6-2.3-1.9-57.7-46.8-113.8-116.1-33.1-41-59.6-82.1-78.7-122-24.3-51-36.6-100.5-36.6-147.1 0-64.7 25.2-125.5 70.9-171.3 45.7-45.7 106.6-70.9 171.3-70.9s125.5 25.2 171.3 70.9c45.7 45.7 70.9 106.6 70.9 171.3 0 46.6-12.3 96.1-36.6 147.1-19.1 40-45.5 81.1-78.7 122-56.1 69.3-111.4 114.2-113.8 116.1-3.6 3-8.3 4.6-13 4.6zm0-590.1c-110.4 0-200.2 89.8-200.2 200.2 0 92.1 57.3 182.5 105.4 242.1 37.5 46.5 75.4 82 94.8 99.2 19.4-17.1 57.3-52.7 94.8-99.2 48.1-59.6 105.4-150 105.4-242.1 0-110.4-89.8-200.2-200.2-200.2z" fill="#7367F0" opacity="1" data-original="#000000"></path><path d="M1144.5 577.6c-67.5 0-122.4-54.9-122.4-122.4s54.9-122.4 122.4-122.4 122.4 54.9 122.4 122.4-54.9 122.4-122.4 122.4zm0-202.7c-44.3 0-80.4 36.1-80.4 80.4s36.1 80.4 80.4 80.4 80.4-36.1 80.4-80.4c0-44.4-36-80.4-80.4-80.4zM1144.5 802.2c-11.6 0-21 9.4-21 21v483.7c0 11.6 9.4 21 21 21s21-9.4 21-21V823.2c0-11.6-9.4-21-21-21z" fill="#7367F0" opacity="1" data-original="#000000"></path></g></svg>