<svg xmlns="http://www.w3.org/2000/svg" version="1.1" xmlns:xlink="http://www.w3.org/1999/xlink" width="512" height="512" x="0" y="0" viewBox="0 0 64 64" style="enable-background:new 0 0 512 512" xml:space="preserve" class=""><g><path d="M55 7h-2V4a3 3 0 0 0-3-3h-4a3 3 0 0 0-3 3v3H21V4a3 3 0 0 0-3-3h-4a3 3 0 0 0-3 3v3H9a3 3 0 0 0-3 3v50a3 3 0 0 0 3 3h46a3 3 0 0 0 3-3V10a3 3 0 0 0-3-3zM8 30v-9h48v26h-7a3 3 0 0 0-3 3v7H9a1 1 0 0 1-1-1zm40 20a1 1 0 0 1 1-1h5.59L48 55.59zM45 4a1 1 0 0 1 1-1h4a1 1 0 0 1 1 1v3h-6zM13 4a1 1 0 0 1 1-1h4a1 1 0 0 1 1 1v3h-6zm-5 6a1 1 0 0 1 1-1h2v5a3 3 0 0 0 3 3h4a1 1 0 0 0 0-2h-4a1 1 0 0 1-1-1V9h30v5a3 3 0 0 0 3 3h4a1 1 0 0 0 0-2h-4a1 1 0 0 1-1-1V9h10a1 1 0 0 1 1 1v9H8zm47 51H9a1 1 0 0 1-1-1v-1.18A3 3 0 0 0 9 59h38a1 1 0 0 0 .38-.08 1 1 0 0 0 .33-.21l8.29-8.3V60a1 1 0 0 1-1 1z" fill="#7367F0" opacity="1" data-original="#000000" class=""></path><path d="M26 53h12a1 1 0 0 0 1-1v-4a1 1 0 0 0-1-1h-2V26a1 1 0 0 0-1-1h-5a1 1 0 0 0-1 1c0 1.2-.29 4-3 4a1 1 0 0 0-1 1v3a1 1 0 0 0 1 1h2v12h-2a1 1 0 0 0-1 1v4a1 1 0 0 0 1 1zm1-4h2a1 1 0 0 0 1-1V34a1 1 0 0 0-1-1h-2v-1.09c2.2-.42 3.66-2.23 3.95-4.91H34v21a1 1 0 0 0 1 1h2v2H27z" fill="#7367F0" opacity="1" data-original="#000000" class=""></path></g></svg>