<svg xmlns="http://www.w3.org/2000/svg" version="1.1" xmlns:xlink="http://www.w3.org/1999/xlink" width="512" height="512" x="0" y="0" viewBox="0 0 512 512" style="enable-background:new 0 0 512 512" xml:space="preserve"><g><path d="M317.12 390.034a8 8 0 0 1-8 8h-40.28a8 8 0 0 1 0-16h13.316V257.75l-10.104 11.058a8 8 0 1 1-11.811-10.793l24.009-26.277a7.999 7.999 0 0 1 13.906 5.396v144.899h10.963a8 8 0 0 1 8 8zM240.5 273.617v79.964c0 24.511-19.954 44.453-44.481 44.453-24.512 0-44.453-19.942-44.453-44.453v-79.964c0-24.527 19.941-44.482 44.453-44.482 24.527 0 44.481 19.955 44.481 44.482zm-16 0c0-15.705-12.777-28.482-28.481-28.482-15.69 0-28.453 12.777-28.453 28.482v79.964c0 15.689 12.764 28.453 28.453 28.453 15.704 0 28.481-12.764 28.481-28.453zm280.824 167.278c-5.81 6.619-14.561 10.571-23.407 10.571h-58.128l-34.338 20.367c-19.008 11.265-38.129 16.511-60.177 16.511H29.91C13.418 488.344 0 474.914 0 458.404V91.325C0 74.83 13.418 61.411 29.91 61.411h26.185V42.257c0-10.431 10.886-18.602 24.782-18.602s24.78 8.17 24.78 18.602v19.155h52.74V42.257c0-10.431 10.884-18.602 24.78-18.602s24.78 8.17 24.78 18.602v19.155h52.768V42.257c0-10.431 10.886-18.602 24.781-18.602 13.896 0 24.781 8.17 24.781 18.602v19.155h52.74V42.257c0-10.431 10.885-18.602 24.78-18.602s24.78 8.17 24.78 18.602v19.155h26.186c16.276 0 29.549 13.07 29.896 29.264l43.12 329.842c.953 7.304-1.343 14.54-6.466 20.377zM379.027 61.412h17.561V42.533c-.64-.94-3.755-2.878-8.78-2.878s-8.141 1.938-8.78 2.879v18.878zm-102.3 0h17.561V42.54c-.646-.944-3.764-2.885-8.781-2.885-5.026 0-8.14 1.938-8.781 2.879v18.878zm-102.33 0h17.562V42.533c-.64-.94-3.755-2.878-8.78-2.878-5.018 0-8.136 1.941-8.782 2.885v18.872zm-102.3 0h17.561V42.534c-.64-.94-3.755-2.879-8.78-2.879-5.027 0-8.142 1.938-8.782 2.879v18.878zM16 91.323v47.53h436.686v-47.53c0-7.67-6.241-13.91-13.912-13.91h-59.747V89.77c.64.94 3.755 2.879 8.78 2.879 4.42 0 8 3.581 8 8s-3.58 8-8 8c-13.895 0-24.78-8.171-24.78-18.602V77.412h-86.301v12.359c.64.94 3.755 2.879 8.78 2.879 4.42 0 8 3.581 8 8s-3.58 8-8 8c-13.895 0-24.78-8.171-24.78-18.602V77.412h-86.329v12.353c.646.944 3.764 2.885 8.781 2.885 4.419 0 8 3.581 8 8s-3.581 8-8 8c-13.896 0-24.781-8.171-24.781-18.602V77.412h-86.3v12.36c.64.94 3.754 2.878 8.78 2.878 4.419 0 8 3.581 8 8s-3.581 8-8 8c-13.895 0-24.78-8.171-24.78-18.602V77.412H29.91C22.241 77.412 16 83.653 16 91.323zM382.246 400.58a8 8 0 0 1 10.154-7.705l60.286 16.86v-254.88H16v303.55c0 7.687 6.24 13.94 13.911 13.94h282.241c43.295 0 70.094-37.251 70.094-71.765zm58.265 22.365-42.902-11.999c-2.2 17.994-10.029 35.5-22.22 49.223a87.3 87.3 0 0 1-2.007 2.182 112.699 112.699 0 0 0 7.91-4.28zm55.413-.353-27.238-208.356V420.28h-.01a7.994 7.994 0 0 1-3.91 6.881l-14.003 8.306h31.153c4.246 0 8.608-1.964 11.384-5.127 1.444-1.644 3.071-4.324 2.624-7.748z" fill="#7367F0" opacity="1" data-original="#000000"></path></g></svg>