<svg xmlns="http://www.w3.org/2000/svg" version="1.1" xmlns:xlink="http://www.w3.org/1999/xlink" width="512" height="512" x="0" y="0" viewBox="0 0 511.998 511" style="enable-background:new 0 0 512 512" xml:space="preserve" class=""><g><path d="M8.535 512.488h409.598a8.533 8.533 0 0 0 8.535-8.531v-76.8h59.73a8.533 8.533 0 0 0 8.536-8.532v-85.336c0-4.71-3.82-8.531-8.536-8.531h-59.73v-76.801a8.534 8.534 0 0 0-8.535-8.535h-15.66a19.734 19.734 0 0 0-3.489-15.977l-38.558-51.398 17.804-13.356a29.498 29.498 0 0 0 11.77-25.28l-.855-15.368a12.473 12.473 0 0 1 4.972-10.68l17.801-13.351 7.492 9.984a8.527 8.527 0 0 0 5.617 3.328c.399.055.801.086 1.207.082a8.497 8.497 0 0 0 5.121-1.707l70.407-52.816c11.304-8.48 13.597-24.524 5.117-35.832l-4.742-6.328c-8.492-11.293-24.528-13.578-35.84-5.11l-70.399 52.813c-3.77 2.828-4.535 8.18-1.707 11.949l7.489 9.984-17.801 13.356a29.48 29.48 0 0 0-11.77 25.277l.852 15.367a12.455 12.455 0 0 1-4.969 10.68l-17.8 13.356-38.563-51.399a19.789 19.789 0 0 0-17.367-7.98 18.932 18.932 0 0 0-15.309 9.933l-70.117 130.473H8.536A8.534 8.534 0 0 0 0 247.957v85.332a8.534 8.534 0 0 0 8.535 8.535h59.73v68.266H8.536A8.534 8.534 0 0 0 0 418.625v85.332c0 4.711 3.82 8.531 8.535 8.531zM476.54 19.262c3.766-2.828 9.113-2.067 11.945 1.703l4.743 6.328a8.535 8.535 0 0 1-1.707 11.941l-63.583 47.7-14.98-19.977zM153.602 427.156h119.464v68.266H153.602zm68.265-85.332h119.465v68.266H221.867zm187.735 153.598h-119.47v-68.266h119.47zm68.265-85.332H358.398v-68.266h119.47zm-68.265-85.332h-119.47v-49.692l87.345-18.578h32.125zm-115.61-207.723c.29-.598.89-.98 1.555-1l.168-.008a2.81 2.81 0 0 1 2.262 1.207l38.554 51.399-35.203 26.41a8.536 8.536 0 0 0-1.707 11.95c2.828 3.769 8.176 4.53 11.95 1.706l35.202-26.41 38.559 51.398c.613.75.793 1.762.469 2.672a1.79 1.79 0 0 1-1.395 1.215l-169.293 36a2.776 2.776 0 0 1-2.71-1.16 2.72 2.72 0 0 1-.352-2.922zm-95.238 165.621a19.535 19.535 0 0 0 19.91 7.61l54.402-11.57v46.062H153.602v-68.27h46.058l-2.644 4.922a19.617 19.617 0 0 0 1.738 21.246zm-181.688 7.969h17.067a8.534 8.534 0 1 0 0-17.066H17.066v-17.07h119.47v68.269H17.065zm68.266 51.2h119.469v68.265H85.332zm-68.266 85.331h119.47v68.266H17.065zm0 0" fill="#7367F0" opacity="1" data-original="#000000"></path><path d="M110.934 282.09c0-4.711-3.82-8.531-8.536-8.531H68.266a8.532 8.532 0 0 0-8.532 8.53 8.533 8.533 0 0 0 8.532 8.536h34.132a8.534 8.534 0 0 0 8.536-8.535zm0 0" fill="#7367F0" opacity="1" data-original="#000000"></path></g></svg>